# xmcd CD database file
#
# Track frame offsets:
#	150
#	18326
#	36898
#	66771
#	85091
#	103206
#	126422
#	179040
#	224452
#	269695
#
# Disc length: 4002 seconds
#
# Revision: 0
# Processed by: cddbd v1.5.2PL0 Copyright (c) Steve Scherf et al.
# Submitted via: CDex 1.51
#
DISCID=990fa00a
DTITLE=SPA - The sound of birds
DYEAR=1900
DGENRE=New Age
TTITLE0=Heaven
TTITLE1=Anywhere
TTITLE2=Mummer's dance
TTITLE3=Morning song
TTITLE4=The rose
TTITLE5=Red indian song
TTITLE6=Morning light
TTITLE7=The shore
TTITLE8=Relaxing
TTITLE9=Sunshine
EXTD=
EXTT0=
EXTT1=
EXTT2=
EXTT3=
EXTT4=
EXTT5=
EXTT6=
EXTT7=
EXTT8=
EXTT9=
PLAYORDER=
